<svg width="214" height="19" viewBox="0 0 214 19" fill="none" xmlns="http://www.w3.org/2000/svg">
<path d="M-6.09457e-06 -1.43051e-06H23.328L18.96 4.38H5.83199V7.296H23.328V18.96H-6.09457e-06L4.37999 14.58H17.496V11.664H-6.09457e-06V-1.43051e-06ZM32.7593 12.072L42.9713 -1.43051e-06H51.7913L43.7273 9.48H43.7633L51.7913 18.96H43.0433L39.3593 14.628L35.6753 18.96H26.9273V-1.43051e-06H32.7593V12.072ZM55.3781 -1.43051e-06H78.7061L74.3381 4.38H61.2101V7.296H74.3381V11.664H61.2101V14.58H74.3381L78.7061 18.96H55.3781V-1.43051e-06ZM91.0535 18.96V4.452H82.3055V-1.43051e-06H105.633V4.452H96.8855V18.96H91.0535ZM109.233 -1.43051e-06H132.561V4.524H115.209V14.58H132.561V18.96H109.233V-1.43051e-06ZM153.656 7.296V-1.43051e-06H159.488V18.96H153.656V11.664L141.992 11.748V18.96H136.16V-1.43051e-06H141.992V7.296H153.656Z" fill="white"/>
<path d="M186.415 18.96H180.583V13.128H168.919V18.96H163.087V-1.43051e-06H186.415V18.96ZM168.919 8.748H180.583V4.38H168.919V8.748ZM208.975 13.128H206.059L210.427 18.96H203.143L198.763 13.128H195.847V18.96H190.015V-1.43051e-06H213.343V8.748L208.975 13.128ZM207.511 8.748V4.38H195.847V8.748H207.511Z" fill="#47ACFF"/>
</svg>
